<svg xmlns="http://www.w3.org/2000/svg" version="1.1" xmlns:xlink="http://www.w3.org/1999/xlink" xmlns:svgjs="http://svgjs.dev/svgjs" width="1000" height="1000" viewBox="0 0 1000 1000"><rect width="1000" height="1000" fill="#000000"></rect><g transform="matrix(0.7,0,0,0.7,150.0000000000001,106.25)"><svg viewBox="0 0 320 360" data-background-color="#d2d6dc" preserveAspectRatio="xMidYMid meet" height="1125" width="1000" xmlns="http://www.w3.org/2000/svg" xmlns:xlink="http://www.w3.org/1999/xlink"><g id="tight-bounds" transform="matrix(1,0,0,1,0,0)"><svg viewBox="0 0 320 360" height="360" width="320"><g><svg></svg></g><g><svg viewBox="0 0 320 360" height="360" width="320"><g><path xmlns="http://www.w3.org/2000/svg" d="M20.961 227.22l3.726 4.658-1.863-6.056c-0.466-2.795-3.726 0.466-1.863 1.398M25.153 224.425c1.397 2.329 2.795 4.658 2.795 6.987 0 3.261 2.795 4.658 5.123 5.589-3.261-3.726-5.124-13.974-7.918-12.576M204.017 26.929c7.918 0 15.371-0.932 23.756 0.931 20.495 5.124 37.729 15.371 49.374 29.811l32.606 52.169c1.397 13.042 4.192 27.482 3.726 43.319 3.261 0 2.795-4.658 6.521-5.59-3.726 9.316-5.59 20.961-6.521 34.469-2.329-7.453 0-18.632 0.466-24.687-3.261 5.124-5.124 1.397-5.124-0.932 0.466-3.726-1.397-3.261-2.795-4.658-5.124-4.658-8.384-9.782-12.11-17.7 2.329-6.055 2.795-14.905-4.658-19.563-2.329-1.397-5.124-3.726-6.521-7.453-1.863-5.124-5.124-11.179-4.193-19.097 0.466-2.329-6.987 5.124-11.179 1.863-18.166-12.576-36.332-27.016-58.224-39.127-11.645 0-20.029-4.192-24.221-9.316-3.726-4.658-0.932-10.713 4.658-11.179 3.261 0 6.987-0.932 9.782 0.932 0.466-1.863 2.329-4.192 4.657-4.192M157.904 16.215l0.932 0.466c4.658 0.932 6.987 7.453 12.11 5.124 0 3.261 0.466 6.521-0.466 8.85-1.397 3.726-5.59 3.726-8.85 3.726-31.208-1.863-49.374 11.179-68.471 22.358-5.124 3.261-10.713 5.59-14.906 9.782-20.029 18.632-41.921 35.866-47.045 70.335l-4.192 38.195c-0.466 4.192-5.124 8.384-4.192 13.508l3.26 22.824c-3.261-3.261-5.124 0.932-4.192 2.795 0.466 1.397 2.329 6.055 5.124 1.863 3.726 6.987 7.453 20.495 12.576 26.55 15.837 18.632 36.332 35.4 53.101 52.169 4.192-0.932 7.453-0.932 8.384-3.727 1.397 2.795-1.397 5.59-3.726 6.056 7.453 4.658 15.837 8.85 27.016 9.781 14.44 0.932 27.948 3.261 40.524 6.522 6.521-1.863 13.042-2.795 20.029-3.261 2.329 0 3.726-3.726 6.521-4.658l0.466-4.658c2.795 4.192 2.329-1.397 0.466-4.192 3.261 2.795 4.192 5.124 5.589 6.987 0-1.397 3.726-6.521 3.727-0.466l0.931-6.055c1.397-0.932 1.863 5.124 3.261 0.931 1.397-4.192 4.192-0.932 6.987-2.329-0.932 1.863-0.466 5.59 2.794 3.261l3.727-3.261c2.329 5.59 6.055 3.261 7.918 2.329 20.495-13.042 40.99-28.413 60.553-43.784l-0.466 6.055 2.329-7.453c2.329 2.329 4.192 0.466 5.124-0.931 2.795-4.658 6.521-9.316 12.577-13.508-7.453 20.029-16.303 35.866-27.482 48.908l-4.658 5.59c0 3.261-0.932 7.453-4.658 7.918-1.863 0.466-5.59-0.932-8.384 1.863-1.397 1.863 3.261 5.59-0.466 2.795-3.261-2.329-6.521 0-10.248 0.932-2.795 0.932 1.863 3.726 2.795 5.589 0.932 1.863 1.863 3.726 1.398 6.056l-5.124-5.59c-6.055 3.261-9.782 9.316-14.906 13.974-2.329 1.863-1.397 5.124-1.397 7.918-3.261 0-6.987-0.932-8.85 0.932-1.397 1.863-0.932 4.658-0.932 7.453-4.658-0.466-5.124-7.453-9.315-6.056-4.192 0.932-8.85 1.397-12.577 3.727 2.795 5.59-4.658 2.329-3.726 3.26-6.987-4.192-13.042-7.453-20.495-4.658-15.837-5.124-35.4-2.795-49.84-0.931 0-2.329 0.466-4.658-0.466-5.124-0.932 2.329-3.726 1.397-3.26 1.397-8.85-6.055-17.7-9.782-27.016-14.905-8.384 0.932-16.303-3.261-18.632-5.59-6.521-6.055-13.974-2.795-20.029-4.192-13.042-3.261-17.7-16.769-19.098-26.084-0.932-4.658-4.658-6.521-6.055-6.056-6.055-19.563-15.371-37.263-22.824-55.429-1.863-4.658-1.397-9.316-1.397-14.44 2.329 0.932 4.658 0.466 4.192-2.794-2.329-15.371-7.918-27.016-13.974-38.195 3.261-15.837 3.726-34.469 11.179-48.443 6.521-12.576 18.632-19.098 27.016-29.811 2.795-3.726 2.795-8.85 5.59-12.11 9.316-9.316 18.632-19.098 28.879-27.482 4.658-3.726 10.247 0 17.234-1.397 2.329-8.384 11.645-15.837 20.495-13.508 3.726 0.932 11.179-8.85 13.508-9.782 3.726-1.397 1.863 3.726 1.863 6.987 8.85-6.987 20.961-10.713 32.14-14.906" fill="#ffffff" fill-rule="nonzero" stroke="none" stroke-width="1" stroke-linecap="butt" stroke-linejoin="miter" stroke-miterlimit="10" stroke-dasharray="" stroke-dashoffset="0" font-family="none" font-weight="none" font-size="none" text-anchor="none" style="mix-blend-mode: normal" data-fill-palette-color="tertiary"></path></g><g transform="matrix(1,0,0,1,64,103.36154703369812)"><svg viewBox="0 0 192 153.27690593260377" height="153.27690593260377" width="192"><g><svg viewBox="0 0 192 153.27690593260377" height="153.27690593260377" width="192"><g><svg viewBox="0 0 192 153.27690593260377" height="153.27690593260377" width="192"><g transform="matrix(1,0,0,1,0,88.95812661922338)"><svg viewBox="0 0 192 64.31877931338038" height="64.31877931338038" width="192"><g id="textblocktransform"><svg viewBox="0 0 192 64.31877931338038" height="64.31877931338038" width="192" id="textblock"><g><svg viewBox="0 0 192 37.54987437908747" height="37.54987437908747" width="192"><g transform="matrix(1,0,0,1,0,0)"><svg width="192" viewBox="0.44166669249534607 -35.349998474121094 183.288330078125 35.849998474121094" height="37.54987437908747" data-palette-color="#636365"><path d="M13.65 0L7.6 0Q7.4 0 7.35-0.25L7.35-0.25 0.45-34.6Q0.4-34.8 0.65-34.8L0.65-34.8 6.3-34.8Q6.5-34.8 6.55-34.6L6.55-34.6 10.65-11.7 14.65-34.6Q14.7-34.8 14.9-34.8L14.9-34.8 20.5-34.8Q20.75-34.8 20.7-34.6L20.7-34.6 13.9-0.25Q13.85 0 13.65 0L13.65 0ZM31.9 0.5L31.9 0.5Q29.2 0.5 26.97-0.88 24.75-2.25 23.4-4.53 22.05-6.8 22.05-9.55L22.05-9.55 22.1-25.4Q22.1-28.15 23.42-30.4 24.75-32.65 27-34 29.25-35.35 31.9-35.35L31.9-35.35Q34.6-35.35 36.8-34 39-32.65 40.32-30.4 41.65-28.15 41.65-25.4L41.65-25.4 41.7-9.55Q41.7-6.8 40.37-4.53 39.05-2.25 36.82-0.88 34.6 0.5 31.9 0.5ZM31.9-5.55L31.9-5.55Q33.4-5.55 34.52-6.78 35.65-8 35.65-9.55L35.65-9.55 35.6-25.4Q35.6-27.05 34.55-28.2 33.5-29.35 31.9-29.35L31.9-29.35Q30.35-29.35 29.25-28.23 28.15-27.1 28.15-25.4L28.15-25.4 28.15-9.55Q28.15-7.9 29.25-6.73 30.35-5.55 31.9-5.55ZM61.85 0L45.7 0Q45.5 0 45.5-0.25L45.5-0.25 45.55-34.55Q45.55-34.8 45.8-34.8L45.8-34.8 51.35-34.8Q51.6-34.8 51.6-34.55L51.6-34.55 51.55-6.15 61.85-6.15Q62.1-6.15 62.1-5.9L62.1-5.9 62.1-0.25Q62.1 0 61.85 0L61.85 0ZM73.89 0.5L73.89 0.5Q71.19 0.5 68.97-0.88 66.74-2.25 65.39-4.53 64.04-6.8 64.04-9.55L64.04-9.55 64.09-25.4Q64.09-28.15 65.42-30.4 66.74-32.65 68.99-34 71.24-35.35 73.89-35.35L73.89-35.35Q76.59-35.35 78.79-34 80.99-32.65 82.32-30.4 83.64-28.15 83.64-25.4L83.64-25.4 83.69-9.55Q83.69-6.8 82.37-4.53 81.04-2.25 78.82-0.88 76.59 0.5 73.89 0.5ZM73.89-5.55L73.89-5.55Q75.39-5.55 76.52-6.78 77.64-8 77.64-9.55L77.64-9.55 77.59-25.4Q77.59-27.05 76.54-28.2 75.49-29.35 73.89-29.35L73.89-29.35Q72.34-29.35 71.24-28.23 70.14-27.1 70.14-25.4L70.14-25.4 70.14-9.55Q70.14-7.9 71.24-6.73 72.34-5.55 73.89-5.55ZM100.74 0L95.09 0Q94.89 0 94.89-0.25L94.89-0.25 94.99-34.6Q94.99-34.8 95.19-34.8L95.19-34.8 101.29-34.8Q101.49-34.8 101.64-34.6L101.64-34.6 106.19-28 110.74-34.6Q110.89-34.8 111.09-34.8L111.09-34.8 117.24-34.8Q117.44-34.8 117.44-34.6L117.44-34.6 117.54-0.25Q117.54 0 117.34 0L117.34 0 111.69 0Q111.49 0 111.49-0.25L111.49-0.25 111.44-25.75 106.19-18.15 100.99-25.75 100.94-0.25Q100.94 0 100.74 0L100.74 0ZM120.04-0.25L120.04-0.25 126.24-34.6Q126.29-34.8 126.49-34.8L126.49-34.8 133.74-34.8Q133.94-34.8 133.99-34.6L133.99-34.6 139.94-0.25Q139.99 0 139.74 0L139.74 0 134.19 0Q133.99 0 133.94-0.25L133.94-0.25 133.39-3.9 126.59-3.9 126.04-0.25Q125.99 0 125.79 0L125.79 0 120.24 0Q120.04 0 120.04-0.25ZM129.84-23.3L127.59-9.25 132.39-9.25 130.34-23.3 130.04-25.15 129.84-23.3ZM148.93 0L143.28 0Q143.08 0 143.08-0.25L143.08-0.25 143.18-34.6Q143.18-34.8 143.38-34.8L143.38-34.8 153.48-34.8Q156.18-34.8 158.46-33.48 160.73-32.15 162.08-29.93 163.43-27.7 163.43-24.9L163.43-24.9Q163.43-23.05 162.88-21.58 162.33-20.1 161.58-19.07 160.83-18.05 160.23-17.55L160.23-17.55Q162.93-14.55 162.93-10.5L162.93-10.5 162.98-0.25Q162.98 0 162.73 0L162.73 0 157.08 0Q156.88 0 156.88-0.15L156.88-0.15 156.88-10.5Q156.88-12.3 155.61-13.63 154.33-14.95 152.48-14.95L152.48-14.95 149.18-14.95 149.13-0.25Q149.13 0 148.93 0L148.93 0ZM149.18-28.8L149.18-20.95 153.48-20.95Q155.03-20.95 156.23-22.1 157.43-23.25 157.43-24.9L157.43-24.9Q157.43-26.5 156.26-27.65 155.08-28.8 153.48-28.8L153.48-28.8 149.18-28.8ZM176.83 0L171.18 0Q170.98 0 170.98-0.25L170.98-0.25 170.98-28.75 164.48-28.75Q164.23-28.75 164.23-29L164.23-29 164.28-34.6Q164.28-34.8 164.48-34.8L164.48-34.8 183.48-34.8Q183.73-34.8 183.73-34.6L183.73-34.6 183.73-29Q183.73-28.75 183.53-28.75L183.53-28.75 176.98-28.75 177.03-0.25Q177.03 0 176.83 0L176.83 0Z" opacity="1" transform="matrix(1,0,0,1,0,0)" fill="#ffffff" class="undefined-text-0" data-fill-palette-color="primary" id="text-0"></path></svg></g></svg></g><g transform="matrix(1,0,0,1,0,43.02930224798143)"><svg viewBox="0 0 192 21.28947706539895" height="21.28947706539895" width="192"><g transform="matrix(1,0,0,1,0,0)"><svg width="192" viewBox="4.349999904632568 -42.29999923706055 389.1199951171875 43.14999771118164" height="21.28947706539895" data-palette-color="#89939e"><path d="M12.3-6.85L26.6-6.85 26.6 0 4.35 0 4.35-37.9 12.3-37.9 12.3-6.85ZM45.4 0.85Q40.65 0.85 37.3-1.1 33.95-3.05 32.27-6.43 30.6-9.8 30.6-14.05L30.6-14.05Q30.6-18.25 32.27-21.63 33.95-25 37.3-26.98 40.65-28.95 45.4-28.95L45.4-28.95Q50.15-28.95 53.45-26.98 56.75-25 58.42-21.63 60.1-18.25 60.1-14.05L60.1-14.05Q60.1-9.8 58.42-6.43 56.75-3.05 53.45-1.1 50.15 0.85 45.4 0.85L45.4 0.85ZM45.4-5.75Q48.65-5.75 50.35-7.93 52.05-10.1 52.05-14.05L52.05-14.05Q52.05-17.95 50.35-20.13 48.65-22.3 45.4-22.3L45.4-22.3Q42.1-22.3 40.37-20.13 38.65-17.95 38.65-14.05L38.65-14.05Q38.65-10.15 40.37-7.95 42.1-5.75 45.4-5.75L45.4-5.75ZM78.25 0.85Q71.39 0.8 67.75-3.13 64.09-7.05 64.09-14.1L64.09-14.1Q64.09-21.1 67.75-25 71.39-28.9 78.25-28.95L78.25-28.95Q80.69-28.95 82.47-28.63 84.25-28.3 86.19-27.55L86.19-27.55 86.19-20.5Q84.34-21.35 82.69-21.7 81.05-22.05 79.09-22.05L79.09-22.05Q75.44-22 73.8-19.98 72.14-17.95 72.14-14.15L72.14-14.15Q72.14-6.05 78.89-6L78.89-6Q82.34-6 86.05-8.25L86.05-8.25 88.25-1.8Q83.69 0.85 78.25 0.85L78.25 0.85ZM103.54-28.15Q108.79-28.15 111.49-26.68 114.19-25.2 115.09-22.75 115.99-20.3 115.99-16.5L115.99-16.5 115.99 0 108.29 0 108.29-2.4Q106.49-0.75 104.77-0.05 103.04 0.65 100.94 0.65L100.94 0.65Q96.34 0.65 93.64-1.88 90.94-4.4 90.94-8.85L90.94-8.85Q90.94-13.4 93.72-15.85 96.49-18.3 101.39-18.3L101.39-18.3Q105.34-18.3 108.29-16.8L108.29-16.8Q108.24-18.45 107.84-19.43 107.44-20.4 106.27-20.93 105.09-21.45 102.79-21.45L102.79-21.45 97.59-21.45 97.59-28.15 103.54-28.15ZM102.49-5.4Q105.29-5.4 108.29-7.9L108.29-7.9 108.29-11.45Q105.69-12.7 103.14-12.7L103.14-12.7Q101.14-12.7 99.94-11.8 98.74-10.9 98.74-8.95L98.74-8.95Q98.74-5.4 102.49-5.4L102.49-5.4ZM131.34 0.65Q122.99 0.65 122.99-6.65L122.99-6.65 122.99-42.3 130.69-42.3 130.69-9.35Q130.69-7.55 131.27-6.88 131.84-6.2 133.34-6.2L133.34-6.2Q134.89-6.2 136.19-6.6L136.19-6.6 136.19 0.05Q133.29 0.65 131.34 0.65L131.34 0.65ZM177.28-31.05L160.74-31.05 160.74-21.55 174.78-21.55 174.78-14.7 160.74-14.7 160.74 0 152.78 0 152.78-37.9 177.28-37.9 177.28-31.05ZM196.18 0.85Q191.43 0.85 188.08-1.1 184.73-3.05 183.06-6.43 181.38-9.8 181.38-14.05L181.38-14.05Q181.38-18.25 183.06-21.63 184.73-25 188.08-26.98 191.43-28.95 196.18-28.95L196.18-28.95Q200.93-28.95 204.23-26.98 207.53-25 209.21-21.63 210.88-18.25 210.88-14.05L210.88-14.05Q210.88-9.8 209.21-6.43 207.53-3.05 204.23-1.1 200.93 0.85 196.18 0.85L196.18 0.85ZM196.18-5.75Q199.43-5.75 201.13-7.93 202.83-10.1 202.83-14.05L202.83-14.05Q202.83-17.95 201.13-20.13 199.43-22.3 196.18-22.3L196.18-22.3Q192.88-22.3 191.16-20.13 189.43-17.95 189.43-14.05L189.43-14.05Q189.43-10.15 191.16-7.95 192.88-5.75 196.18-5.75L196.18-5.75ZM232.18-28.75L233.33-28.75 233.33-21.85 232.18-21.85Q228.23-21.85 224.33-18.95L224.33-18.95 224.33 0 216.63 0 216.63-28.15 224.33-28.15 224.33-25.45Q228.18-28.75 232.18-28.75L232.18-28.75ZM276.13-37.9L284.32-37.9 270.82 0.45 260.93 0.45 247.38-37.9 255.57-37.9 265.88-7.95 276.13-37.9ZM302.67 0.85Q297.92 0.85 294.57-1.1 291.22-3.05 289.55-6.43 287.87-9.8 287.87-14.05L287.87-14.05Q287.87-18.25 289.55-21.63 291.22-25 294.57-26.98 297.92-28.95 302.67-28.95L302.67-28.95Q307.42-28.95 310.72-26.98 314.02-25 315.7-21.63 317.37-18.25 317.37-14.05L317.37-14.05Q317.37-9.8 315.7-6.43 314.02-3.05 310.72-1.1 307.42 0.85 302.67 0.85L302.67 0.85ZM302.67-5.75Q305.92-5.75 307.62-7.93 309.32-10.1 309.32-14.05L309.32-14.05Q309.32-17.95 307.62-20.13 305.92-22.3 302.67-22.3L302.67-22.3Q299.37-22.3 297.65-20.13 295.92-17.95 295.92-14.05L295.92-14.05Q295.92-10.15 297.65-7.95 299.37-5.75 302.67-5.75L302.67-5.75ZM335.52 0.85Q328.67 0.8 325.02-3.13 321.37-7.05 321.37-14.1L321.37-14.1Q321.37-21.1 325.02-25 328.67-28.9 335.52-28.95L335.52-28.95Q337.97-28.95 339.75-28.63 341.52-28.3 343.47-27.55L343.47-27.55 343.47-20.5Q341.62-21.35 339.97-21.7 338.32-22.05 336.37-22.05L336.37-22.05Q332.72-22 331.07-19.98 329.42-17.95 329.42-14.15L329.42-14.15Q329.42-6.05 336.17-6L336.17-6Q339.62-6 343.32-8.25L343.32-8.25 345.52-1.8Q340.97 0.85 335.52 0.85L335.52 0.85ZM360.82-28.15Q366.07-28.15 368.77-26.68 371.47-25.2 372.37-22.75 373.27-20.3 373.27-16.5L373.27-16.5 373.27 0 365.57 0 365.57-2.4Q363.77-0.75 362.04-0.05 360.32 0.65 358.22 0.65L358.22 0.65Q353.62 0.65 350.92-1.88 348.22-4.4 348.22-8.85L348.22-8.85Q348.22-13.4 350.99-15.85 353.77-18.3 358.67-18.3L358.67-18.3Q362.62-18.3 365.57-16.8L365.57-16.8Q365.52-18.45 365.12-19.43 364.72-20.4 363.54-20.93 362.37-21.45 360.07-21.45L360.07-21.45 354.87-21.45 354.87-28.15 360.82-28.15ZM359.77-5.4Q362.57-5.4 365.57-7.9L365.57-7.9 365.57-11.45Q362.97-12.7 360.42-12.7L360.42-12.7Q358.42-12.7 357.22-11.8 356.02-10.9 356.02-8.95L356.02-8.95Q356.02-5.4 359.77-5.4L359.77-5.4ZM388.62 0.65Q380.27 0.65 380.27-6.65L380.27-6.65 380.27-42.3 387.97-42.3 387.97-9.35Q387.97-7.55 388.54-6.88 389.12-6.2 390.62-6.2L390.62-6.2Q392.17-6.2 393.47-6.6L393.47-6.6 393.47 0.05Q390.57 0.65 388.62 0.65L388.62 0.65Z" opacity="1" transform="matrix(1,0,0,1,0,0)" fill="#ffffff" class="undefined-text-1" data-fill-palette-color="secondary" id="text-1"></path></svg></g></svg></g></svg></g></svg></g><g transform="matrix(1,0,0,1,36.672,0)"><svg viewBox="0 0 118.656 83.47869875032941" height="83.47869875032941" width="118.656"><g><svg xmlns="http://www.w3.org/2000/svg" xmlns:xlink="http://www.w3.org/1999/xlink" version="1.1" x="0" y="0" viewBox="12.5 23.99999237060547 74.51792907714844 52.426002502441406" enable-background="new 0 0 100 100" xml:space="preserve" height="83.47869875032941" width="118.656" class="icon-icon-0" data-fill-palette-color="accent" id="icon-0"><path fill="#ffffff" d="M14 27h10.618l4.843 5.535 4.888 28.585c0.115 0.671 0.347 1.298 0.663 1.868-2.926 0.773-5.093 3.436-5.093 6.602 0 3.77 3.066 6.836 6.836 6.836 3.769 0 6.835-3.066 6.835-6.836 0-1.317-0.381-2.545-1.029-3.59h22.912c-0.648 1.045-1.029 2.272-1.029 3.59 0 3.77 3.066 6.836 6.836 6.836 3.769 0 6.835-3.066 6.835-6.836 0-1.788-0.696-3.413-1.824-4.633 1.033-0.719 1.84-1.764 2.246-3.02l8.192-25.305c0.58-1.788 0.278-3.712-0.827-5.232-1.105-1.521-2.818-2.4-4.698-2.4H30.354l-4.375-5H14c-0.828 0-1.5 0.671-1.5 1.5S13.172 27 14 27zM36.755 73.426c-2.115 0-3.836-1.721-3.836-3.836s1.721-3.836 3.836-3.836c2.114 0 3.835 1.721 3.835 3.836S38.869 73.426 36.755 73.426zM71.279 73.426c-2.115 0-3.836-1.721-3.836-3.836 0-1.652 1.057-3.052 2.525-3.59h2.621c1.468 0.538 2.524 1.938 2.524 3.59C75.114 71.705 73.394 73.426 71.279 73.426zM81.203 32c0.909 0 1.737 0.429 2.271 1.165 0.535 0.735 0.681 1.66 0.4 2.525l-1.342 4.134L81.193 32H81.203zM79.921 32L81.7 42.394l-3.273 10.097L74.917 32H79.921zM73.644 32l3.95 23.066-1.911 5.902c-0.28 0.865-0.948 1.512-1.775 1.789L68.64 32H73.644zM67.366 32l5.274 30.891c-0.44-0.089-0.896-0.137-1.361-0.137-0.62 0-1.218 0.091-1.789 0.246h-1.835l-5.293-31H67.366zM61.089 32l5.293 31h-5.004l-5.293-31H61.089zM54.812 32l5.293 31h-5.004l-5.293-31H54.812zM48.535 32l5.292 31h-5.004l-5.292-31H48.535zM42.258 32l5.293 31h-5.005l-5.292-31H42.258zM35.98 32l5.293 31h-1.199c-1.372 0-2.537-1.033-2.769-2.387L32.413 32H35.98z" data-fill-palette-color="accent"></path></svg></g></svg></g><g></g></svg></g></svg></g></svg></g></svg></g><defs></defs></svg><rect width="320" height="360" fill="none" stroke="none" visibility="hidden"></rect></g></svg></g></svg>